<svg width="262" height="160" viewBox="0 0 262 160" fill="none" xmlns="http://www.w3.org/2000/svg">
<path d="M156.5 80C156.5 123.372 121.784 158.5 79 158.5C36.2157 158.5 1.5 123.372 1.5 80C1.5 36.6278 36.2157 1.5 79 1.5C121.784 1.5 156.5 36.6278 156.5 80Z" fill="#FFFEFE" stroke="black" stroke-width="3"/>
<path d="M92.6875 96H85.1172L85.1641 89.6719H92.6875C94.25 89.6719 95.5703 89.2969 96.6484 88.5469C97.7422 87.7969 98.5703 86.6797 99.1328 85.1953C99.7109 83.6953 100 81.8516 100 79.6641V78.1875C100 76.5469 99.8359 75.1094 99.5078 73.875C99.1953 72.625 98.7266 71.5859 98.1016 70.7578C97.4766 69.9141 96.6953 69.2812 95.7578 68.8594C94.8359 68.4375 93.7734 68.2266 92.5703 68.2266H84.9766V61.875H92.5703C94.8828 61.875 97 62.2734 98.9219 63.0703C100.859 63.8516 102.531 64.9766 103.938 66.4453C105.359 67.8984 106.453 69.625 107.219 71.625C108 73.6094 108.391 75.8125 108.391 78.2344V79.6641C108.391 82.0703 108 84.2734 107.219 86.2734C106.453 88.2734 105.367 90 103.961 91.4531C102.555 92.9062 100.891 94.0312 98.9688 94.8281C97.0625 95.6094 94.9688 96 92.6875 96ZM89.8281 61.875V96H81.6016V61.875H89.8281ZM111.32 83.5781V83.0859C111.32 81.2266 111.586 79.5156 112.117 77.9531C112.648 76.375 113.43 75.0078 114.461 73.8516C115.492 72.6953 116.766 71.7969 118.281 71.1562C119.797 70.5 121.547 70.1719 123.531 70.1719C125.531 70.1719 127.289 70.5 128.805 71.1562C130.336 71.7969 131.617 72.6953 132.648 73.8516C133.68 75.0078 134.461 76.375 134.992 77.9531C135.523 79.5156 135.789 81.2266 135.789 83.0859V83.5781C135.789 85.4219 135.523 87.1328 134.992 88.7109C134.461 90.2734 133.68 91.6406 132.648 92.8125C131.617 93.9688 130.344 94.8672 128.828 95.5078C127.312 96.1484 125.562 96.4688 123.578 96.4688C121.594 96.4688 119.836 96.1484 118.305 95.5078C116.773 94.8672 115.492 93.9688 114.461 92.8125C113.43 91.6406 112.648 90.2734 112.117 88.7109C111.586 87.1328 111.32 85.4219 111.32 83.5781ZM119.219 83.0859V83.5781C119.219 84.5312 119.289 85.4219 119.43 86.25C119.57 87.0781 119.805 87.8047 120.133 88.4297C120.461 89.0391 120.906 89.5156 121.469 89.8594C122.031 90.2031 122.734 90.375 123.578 90.375C124.406 90.375 125.094 90.2031 125.641 89.8594C126.203 89.5156 126.648 89.0391 126.977 88.4297C127.305 87.8047 127.539 87.0781 127.68 86.25C127.82 85.4219 127.891 84.5312 127.891 83.5781V83.0859C127.891 82.1641 127.82 81.2969 127.68 80.4844C127.539 79.6562 127.305 78.9297 126.977 78.3047C126.648 77.6641 126.203 77.1641 125.641 76.8047C125.078 76.4453 124.375 76.2656 123.531 76.2656C122.703 76.2656 122.008 76.4453 121.445 76.8047C120.898 77.1641 120.461 77.6641 120.133 78.3047C119.805 78.9297 119.57 79.6562 119.43 80.4844C119.289 81.2969 119.219 82.1641 119.219 83.0859ZM155.711 61.875H162.414L170.031 85.6172L177.648 61.875H184.352L172.75 96H167.312L155.711 61.875ZM151.633 61.875H158.57L159.859 88.0312V96H151.633V61.875ZM181.492 61.875H188.453V96H180.203V88.0312L181.492 61.875ZM192.367 83.5781V83.0859C192.367 81.2266 192.633 79.5156 193.164 77.9531C193.695 76.375 194.477 75.0078 195.508 73.8516C196.539 72.6953 197.812 71.7969 199.328 71.1562C200.844 70.5 202.594 70.1719 204.578 70.1719C206.578 70.1719 208.336 70.5 209.852 71.1562C211.383 71.7969 212.664 72.6953 213.695 73.8516C214.727 75.0078 215.508 76.375 216.039 77.9531C216.57 79.5156 216.836 81.2266 216.836 83.0859V83.5781C216.836 85.4219 216.57 87.1328 216.039 88.7109C215.508 90.2734 214.727 91.6406 213.695 92.8125C212.664 93.9688 211.391 94.8672 209.875 95.5078C208.359 96.1484 206.609 96.4688 204.625 96.4688C202.641 96.4688 200.883 96.1484 199.352 95.5078C197.82 94.8672 196.539 93.9688 195.508 92.8125C194.477 91.6406 193.695 90.2734 193.164 88.7109C192.633 87.1328 192.367 85.4219 192.367 83.5781ZM200.266 83.0859V83.5781C200.266 84.5312 200.336 85.4219 200.477 86.25C200.617 87.0781 200.852 87.8047 201.18 88.4297C201.508 89.0391 201.953 89.5156 202.516 89.8594C203.078 90.2031 203.781 90.375 204.625 90.375C205.453 90.375 206.141 90.2031 206.688 89.8594C207.25 89.5156 207.695 89.0391 208.023 88.4297C208.352 87.8047 208.586 87.0781 208.727 86.25C208.867 85.4219 208.938 84.5312 208.938 83.5781V83.0859C208.938 82.1641 208.867 81.2969 208.727 80.4844C208.586 79.6562 208.352 78.9297 208.023 78.3047C207.695 77.6641 207.25 77.1641 206.688 76.8047C206.125 76.4453 205.422 76.2656 204.578 76.2656C203.75 76.2656 203.055 76.4453 202.492 76.8047C201.945 77.1641 201.508 77.6641 201.18 78.3047C200.852 78.9297 200.617 79.6562 200.477 80.4844C200.336 81.2969 200.266 82.1641 200.266 83.0859ZM228.32 76.9219V96H220.422V70.6406H227.805L228.32 76.9219ZM235.82 70.4531L235.68 77.7891C235.367 77.7578 234.945 77.7188 234.414 77.6719C233.883 77.625 233.438 77.6016 233.078 77.6016C232.156 77.6016 231.359 77.7109 230.688 77.9297C230.031 78.1328 229.484 78.4453 229.047 78.8672C228.625 79.2734 228.312 79.7891 228.109 80.4141C227.922 81.0391 227.836 81.7656 227.852 82.5938L226.422 81.6562C226.422 79.9531 226.586 78.4062 226.914 77.0156C227.258 75.6094 227.742 74.3984 228.367 73.3828C228.992 72.3516 229.75 71.5625 230.641 71.0156C231.531 70.4531 232.531 70.1719 233.641 70.1719C234.031 70.1719 234.414 70.1953 234.789 70.2422C235.18 70.2891 235.523 70.3594 235.82 70.4531ZM250.352 96.4688C248.289 96.4688 246.445 96.1484 244.82 95.5078C243.195 94.8516 241.82 93.9531 240.695 92.8125C239.586 91.6719 238.734 90.3594 238.141 88.875C237.562 87.3906 237.273 85.8203 237.273 84.1641V83.2734C237.273 81.4141 237.531 79.6953 238.047 78.1172C238.562 76.5234 239.328 75.1328 240.344 73.9453C241.359 72.7578 242.633 71.8359 244.164 71.1797C245.695 70.5078 247.477 70.1719 249.508 70.1719C251.305 70.1719 252.914 70.4609 254.336 71.0391C255.758 71.6172 256.961 72.4453 257.945 73.5234C258.945 74.6016 259.703 75.9062 260.219 77.4375C260.75 78.9688 261.016 80.6875 261.016 82.5938V85.8047H240.297V80.8594H253.305V80.25C253.32 79.4062 253.172 78.6875 252.859 78.0938C252.562 77.5 252.125 77.0469 251.547 76.7344C250.969 76.4219 250.266 76.2656 249.438 76.2656C248.578 76.2656 247.867 76.4531 247.305 76.8281C246.758 77.2031 246.328 77.7188 246.016 78.375C245.719 79.0156 245.508 79.7578 245.383 80.6016C245.258 81.4453 245.195 82.3359 245.195 83.2734V84.1641C245.195 85.1016 245.32 85.9531 245.57 86.7188C245.836 87.4844 246.211 88.1406 246.695 88.6875C247.195 89.2188 247.789 89.6328 248.477 89.9297C249.18 90.2266 249.977 90.375 250.867 90.375C251.945 90.375 253.008 90.1719 254.055 89.7656C255.102 89.3594 256 88.6875 256.75 87.75L260.336 92.0156C259.82 92.75 259.086 93.4609 258.133 94.1484C257.195 94.8359 256.07 95.3984 254.758 95.8359C253.445 96.2578 251.977 96.4688 250.352 96.4688Z" fill="black"/>
</svg>
